<svg xmlns="http://www.w3.org/2000/svg" width="336" height="45" viewBox="0 0 336 45" fill="none"><g clip-path="url(#clip0_1927_553)"><path d="M74.1484 15.321H63.2036V34.2595H57.9001V10.6721H79.4519V34.2595H74.1484V15.321Z" fill="#1C1E3E"></path><path d="M88.8839 27.1147C88.8839 28.9685 90.3607 30.8223 93.4508 30.8223C96.3038 30.8223 97.2093 29.138 97.2093 29.138H102.513C102.513 29.138 101.507 34.5985 93.4472 34.5985C87.8419 34.5985 83.814 31.4643 83.814 25.8379C83.814 20.2116 87.8419 17.0774 93.3826 17.0774C98.9232 17.0774 102.919 20.2116 102.919 25.8379C102.919 26.4439 102.818 27.1183 102.818 27.1183H88.8875L88.8839 27.1147ZM88.9522 24.15H97.7806C97.7806 22.8012 96.4727 20.8464 93.3826 20.8464C90.2924 20.8464 88.9522 22.8012 88.9522 24.15V24.15Z" fill="#1C1E3E"></path><path d="M117.956 34.5949C113.727 34.5949 111.981 32.2037 111.981 32.2037H111.78V40.9966H106.947V17.4128H111.78V20.1755H112.013C112.013 20.1755 113.591 17.0738 117.956 17.0738C122.322 17.0738 126.08 20.2404 126.08 25.8343C126.08 31.4282 122.387 34.5949 117.956 34.5949V34.5949ZM116.447 21.3874C113.526 21.3874 111.78 23.3097 111.78 25.8343C111.78 28.359 113.626 30.2813 116.447 30.2813C119.268 30.2813 121.115 28.359 121.115 25.8343C121.115 23.3097 119.368 21.3874 116.447 21.3874V21.3874Z" fill="#1C1E3E"></path><path d="M139.041 34.5948C133.166 34.3604 129.44 31.2912 129.44 25.8343C129.44 20.3775 133.166 17.3082 139.041 17.0738V10.672H143.874V17.0738C149.748 17.3082 153.475 20.3775 153.475 25.8343C153.475 31.2912 149.748 34.3604 143.874 34.5948V40.9966H139.041V34.5948V34.5948ZM139.041 20.7778C135.785 20.8463 134.409 23.1366 134.409 25.8307C134.409 28.5249 135.785 30.8187 139.041 30.8836V20.7742V20.7778ZM143.874 30.8872C147.129 30.8187 148.505 28.5285 148.505 25.8343C148.505 23.1402 147.129 20.8463 143.874 20.7814V30.8908V30.8872Z" fill="#1C1E3E"></path><path d="M166.399 17.0738C171.94 17.0738 175.968 20.2404 175.968 25.8343C175.968 31.4282 171.94 34.5949 166.399 34.5949C160.859 34.5949 156.831 31.4282 156.831 25.8343C156.831 20.2404 160.859 17.0738 166.399 17.0738V17.0738ZM166.399 21.2503C163.446 21.2503 161.8 23.2376 161.8 25.8343C161.8 28.4311 163.446 30.4184 166.399 30.4184C169.353 30.4184 170.999 28.4311 170.999 25.8343C170.999 23.2376 169.353 21.2503 166.399 21.2503V21.2503Z" fill="#1C1E3E"></path><path d="M191.041 24.756L194.566 17.4092H201.282V34.2558H196.445V24.5864L196.815 22.5992H196.413L195.809 24.5864L192.956 30.1479H188.325L185.472 24.5864L184.868 22.5992H184.466L184.836 24.5864V34.2558H180.003V17.4128H186.719L190.243 24.7596L190.477 26.6134H190.811L191.045 24.7596L191.041 24.756Z" fill="#1C1E3E"></path><path d="M212.83 24.3196C216.624 24.3196 218.27 25.7334 218.27 25.7334V23.2736C218.27 22.0257 217.498 20.7129 214.713 20.7129C213.268 20.7129 211.12 21.2178 211.12 22.8372H206.15C206.183 18.8627 209.675 17.0738 214.709 17.0738C219.743 17.0738 223.103 19.0286 223.103 23.2736V28.5321C223.103 29.9459 223.437 30.3499 224.21 30.3499C224.68 30.3499 224.914 30.2164 224.914 30.2164V34.2594C224.914 34.2594 224.31 34.5949 222.833 34.5949C219.542 34.5949 218.773 32.2361 218.773 32.2361H218.54C218.54 32.3371 217.232 34.5949 212.262 34.5949C208.536 34.5949 205.313 33.0115 205.313 29.5059C205.313 26.0002 208.806 24.3159 212.834 24.3159L212.83 24.3196ZM218.27 29.643V28.6331C218.27 28.6331 217.296 27.6232 214.242 27.6232C212.093 27.6232 210.282 27.9586 210.282 29.2751C210.282 30.5915 212.093 30.9269 214.242 30.9269C217.196 30.9269 218.27 29.6466 218.27 29.6466V29.643Z" fill="#1C1E3E"></path><path d="M241.094 27.9262H233.103V34.2594H228.27V17.4128H233.103V23.7461H241.094V17.4128H245.927V34.2594H241.094V27.9262Z" fill="#1C1E3E"></path><path d="M259.527 17.0738C266.174 17.0738 268.894 21.6218 268.894 24.3196H263.925C263.925 24.3196 263.285 21.2539 259.527 21.2539C256.573 21.2539 254.927 23.2412 254.927 25.8379C254.927 28.4347 256.573 30.422 259.527 30.422C263.285 30.422 263.925 27.3563 263.925 27.3563H268.894C268.894 30.0505 266.174 34.6021 259.527 34.6021C253.986 34.6021 249.958 31.4354 249.958 25.8416C249.958 20.2477 253.986 17.081 259.527 17.081V17.0738Z" fill="#1C1E3E"></path><path d="M270.737 32.3046C270.737 32.3046 271.24 32.4381 271.779 32.4381C274.399 32.4381 274.834 29.1705 275.204 26.4402L277.316 10.6684H291.887V34.2594H289.67V12.6954H279.329L277.482 26.4439C276.777 31.7672 275.703 34.5985 271.977 34.5985C271.273 34.5985 270.734 34.3965 270.734 34.3965V32.3082L270.737 32.3046Z" fill="#1C1E3E"></path><path d="M304.847 24.8245C308.775 24.8245 311.056 26.5412 311.056 26.5412V23.5081C311.056 20.6768 308.537 19.364 305.72 19.364C302.731 19.364 300.216 20.7778 300.216 22.5667H298.135C298.203 20.1755 300.517 17.4128 305.656 17.4128C309.583 17.4128 313.14 19.2991 313.14 23.5117V30.4869C313.14 32.1027 313.611 32.6437 314.75 32.6437C315.454 32.6437 315.756 32.4417 315.756 32.4417V34.2594C315.756 34.2594 315.321 34.4939 314.412 34.4939C311.728 34.4939 311.322 32.5066 311.322 32.5066H311.221C311.221 32.5066 309.173 34.5949 304.977 34.5949C300.78 34.5949 297.255 33.2135 297.255 29.7439C297.255 26.2743 300.812 24.8245 304.844 24.8245H304.847ZM305.25 32.6437C309.076 32.6437 310.992 30.8223 311.056 30.7574V28.4311C310.988 28.3301 309.109 26.7793 305.25 26.7793C302.26 26.7793 299.407 27.4862 299.407 29.7439C299.407 32.0017 302.26 32.6437 305.25 32.6437Z" fill="#1C1E3E"></path><path d="M320.593 22.8011H320.693C320.693 22.8011 322.238 18.8916 327.944 18.8916C332.712 18.8916 336 22.1592 336 26.7432C336 31.3272 332.676 34.5948 327.506 34.5948C322.335 34.5948 318.609 30.4833 318.609 24.4854V23.0716C318.609 17.4092 321.595 13.0632 327.675 13.0632C330.661 13.0632 332.105 12.3203 332.105 10.672H334.254C334.254 12.9983 332.809 15.0866 328.009 15.0866C322.202 15.0866 320.589 19.5011 320.589 22.8048L320.593 22.8011ZM327.542 20.9149C324.017 20.9149 321.232 23.4431 321.232 26.7432C321.232 30.0433 324.02 32.5715 327.542 32.5715C331.505 32.5715 333.855 29.9423 333.855 26.7432C333.855 23.5441 331.505 20.9149 327.542 20.9149Z" fill="#1C1E3E"></path><path d="M22.4141 44.9964C34.7931 44.9964 44.8283 34.9236 44.8283 22.4982C44.8283 10.0728 34.7931 0 22.4141 0C10.0352 0 0 10.0728 0 22.4982C0 34.9236 10.0352 44.9964 22.4141 44.9964Z" fill="#1C1E3E"></path><path d="M22.4141 6.58932C13.6612 6.58932 6.5647 13.7124 6.5647 22.4982C6.5647 31.284 13.6612 38.4071 22.4141 38.4071C31.1671 38.4071 38.2636 31.284 38.2636 22.4982V6.58932H22.4141Z" fill="#F5F5FA"></path><path d="M31.8282 13.0524V22.5018C31.8282 25.0264 30.8509 27.396 29.0723 29.1813C27.2936 30.9666 24.9293 31.9476 22.4177 31.9476C17.2292 31.9476 13.0072 27.7098 13.0072 22.5018C13.0072 19.9772 13.9846 17.604 15.7632 15.8223C17.5418 14.037 19.9061 13.056 22.4177 13.056H31.8282M38.2672 6.59293H22.4141C13.6612 6.59293 6.5647 13.716 6.5647 22.5018C6.5647 31.2876 13.6612 38.4107 22.4141 38.4107C31.1671 38.4107 38.2636 31.2876 38.2636 22.5018V6.58932L38.2672 6.59293Z" fill="#FF5959"></path></g><defs><clipPath id="clip0_1927_553"><rect width="336" height="45" fill="white"></rect></clipPath></defs></svg>